Foxy Shazam - The Church of Rock and Roll (2012)[FLAC]


1. Welcome to the Church of Rock and Roll          17 MB 
2. I Like It                                       23 MB
3. Holy Touch                                      23 MB
4. Last Chance At Love                             26 MB
5. Forever Together                                21 MB
6. (It’s) Too Late Baby                            28 MB
7. I Wanna Be Yours                                20 MB
8. Wasted Feelings                                 28 MB
9. The Temple                                      27 MB
10. The Streets                                    32 MB
11. Freedom                                        23 MB



Read more: http://www.rollingstone.com/music/news/exclusive-album-premiere-foxy-shazams-the-church-of-rock-and-roll-20120120#ixzz1lVnN6sHp

----------------------------------------------------------

X Lossless Decoder version 20120120 (139.0)

XLD extraction logfile from 2012-01-29 18:27:36 +0000

Foxy Shazam / The Church of Rock and Roll

Used drive : HL-DT-ST DVDRW  GS23N (revision SB11)

Ripper mode             : XLD Secure Ripper
Disable audio cache     : OK for the drive with a cache less than 1375KiB
Make use of C2 pointers : NO
Read offset correction  : 667
Max retry count         : 100
Gap status              : Analyzed, Appended

TOC of the extracted CD
     Track |   Start  |  Length  | Start sector | End sector 
    ---------------------------------------------------------
        1  | 00:00:00 | 02:08:74 |         0    |     9673   
        2  | 02:08:74 | 02:48:49 |      9674    |    22322   
        3  | 04:57:48 | 02:59:05 |     22323    |    35752   
        4  | 07:56:53 | 03:17:45 |     35753    |    50572   
        5  | 11:14:23 | 03:08:26 |     50573    |    64698   
        6  | 14:22:49 | 04:01:41 |     64699    |    82814   
        7  | 18:24:15 | 02:39:08 |     82815    |    94747   
        8  | 21:03:23 | 03:43:66 |     94748    |   111538   
        9  | 24:47:14 | 03:26:69 |    111539    |   127057   
       10  | 28:14:08 | 04:36:40 |    127058    |   147797   
       11  | 32:50:48 | 03:33:25 |    147798    |   163797   

AccurateRip Summary
    Disc not found in AccurateRip DB.

All Tracks
    Album gain             : -11.89 dB
    Peak                   : 0.988708
    Statistics
        Read error                           : 0
        Jitter error (maybe fixed)           : 0
        Retry sector count                   : 0
        Damaged sector count                 : 0

Track 01
    Filename : /Users/JohnAmbrosio/Desktop/Foxy Shazam - The Church of Rock and Roll (2012) [FLAC]/01 Welcome To The Church Of Rock And Roll.flac
    Pre-gap length : 00:02:00

    Track gain             : -12.08 dB
    Peak                   : 0.988678
    CRC32 hash (test run)  : CB658E56
    CRC32 hash             : CB658E56
    CRC32 hash (skip zero) : 1488C96D
    AccurateRip signature  : 1DB0C7D8
        ->Track not present in AccurateRip database.
    Statistics
        Read error                           : 0
        Jitter error (maybe fixed)           : 0
        Retry sector count                   : 0
        Damaged sector count                 : 0

Track 02
    Filename : /Users/JohnAmbrosio/Desktop/Foxy Shazam - The Church of Rock and Roll (2012) [FLAC]/02 I Like It.flac
    Pre-gap length : 00:00:14

    Track gain             : -12.00 dB
    Peak                   : 0.937042
    CRC32 hash (test run)  : 77676A83
    CRC32 hash             : 77676A83
    CRC32 hash (skip zero) : 960D7FB8
    AccurateRip signature  : 00370F10
        ->Track not present in AccurateRip database.
    Statistics
        Read error                           : 0
        Jitter error (maybe fixed)           : 0
        Retry sector count                   : 0
        Damaged sector count                 : 0

Track 03
    Filename : /Users/JohnAmbrosio/Desktop/Foxy Shazam - The Church of Rock and Roll (2012) [FLAC]/03 Holy Touch.flac
    Pre-gap length : 00:00:42

    Track gain             : -12.39 dB
    Peak                   : 0.988708
    CRC32 hash (test run)  : 8B5DEAA3
    CRC32 hash             : 8B5DEAA3
    CRC32 hash (skip zero) : 89E0BE2C
    AccurateRip signature  : 9890788E
        ->Track not present in AccurateRip database.
    Statistics
        Read error                           : 0
        Jitter error (maybe fixed)           : 0
        Retry sector count                   : 0
        Damaged sector count                 : 0

Track 04
    Filename : /Users/JohnAmbrosio/Desktop/Foxy Shazam - The Church of Rock and Roll (2012) [FLAC]/04 Last Chance At Love.flac

    Track gain             : -12.20 dB
    Peak                   : 0.988678
    CRC32 hash (test run)  : 38D443FA
    CRC32 hash             : 38D443FA
    CRC32 hash (skip zero) : CBBE3585
    AccurateRip signature  : 90FCEF11
        ->Track not present in AccurateRip database.
    Statistics
        Read error                           : 0
        Jitter error (maybe fixed)           : 0
        Retry sector count                   : 0
        Damaged sector count                 : 0

Track 05
    Filename : /Users/JohnAmbrosio/Desktop/Foxy Shazam - The Church of Rock and Roll (2012) [FLAC]/05 Forever Together.flac

    Track gain             : -9.62 dB
    Peak                   : 0.988708
    CRC32 hash (test run)  : 0E5B3DF0
    CRC32 hash             : 0E5B3DF0
    CRC32 hash (skip zero) : A3D957B1
    AccurateRip signature  : 8069E18C
        ->Track not present in AccurateRip database.
    Statistics
        Read error                           : 0
        Jitter error (maybe fixed)           : 0
        Retry sector count                   : 0
        Damaged sector count                 : 0

Track 06
    Filename : /Users/JohnAmbrosio/Desktop/Foxy Shazam - The Church of Rock and Roll (2012) [FLAC]/06 (It's) Too Late Baby.flac

    Track gain             : -12.37 dB
    Peak                   : 0.988678
    CRC32 hash (test run)  : 45761CD9
    CRC32 hash             : 45761CD9
    CRC32 hash (skip zero) : CFA2905A
    AccurateRip signature  : 205EAEFE
        ->Track not present in AccurateRip database.
    Statistics
        Read error                           : 0
        Jitter error (maybe fixed)           : 0
        Retry sector count                   : 0
        Damaged sector count                 : 0

Track 07
    Filename : /Users/JohnAmbrosio/Desktop/Foxy Shazam - The Church of Rock and Roll (2012) [FLAC]/07 I Wanna Be Yours.flac

    Track gain             : -11.13 dB
    Peak                   : 0.988678
    CRC32 hash (test run)  : 4E4BA744
    CRC32 hash             : 4E4BA744
    CRC32 hash (skip zero) : BE98B27D
    AccurateRip signature  : E9E55261
        ->Track not present in AccurateRip database.
    Statistics
        Read error                           : 0
        Jitter error (maybe fixed)           : 0
        Retry sector count                   : 0
        Damaged sector count                 : 0

Track 08
    Filename : /Users/JohnAmbrosio/Desktop/Foxy Shazam - The Church of Rock and Roll (2012) [FLAC]/08 Wasted Feelings.flac

    Track gain             : -11.75 dB
    Peak                   : 0.988678
    CRC32 hash (test run)  : 8DF5FA65
    CRC32 hash             : 8DF5FA65
    CRC32 hash (skip zero) : 41C1ED72
    AccurateRip signature  : 7EBF458A
        ->Track not present in AccurateRip database.
    Statistics
        Read error                           : 0
        Jitter error (maybe fixed)           : 0
        Retry sector count                   : 0
        Damaged sector count                 : 0

Track 09
    Filename : /Users/JohnAmbrosio/Desktop/Foxy Shazam - The Church of Rock and Roll (2012) [FLAC]/09 The Temple.flac
    Pre-gap length : 00:01:20

    Track gain             : -11.93 dB
    Peak                   : 0.988708
    CRC32 hash (test run)  : 40B1C837
    CRC32 hash             : 40B1C837
    CRC32 hash (skip zero) : 72B74CB2
    AccurateRip signature  : 843BEC10
        ->Track not present in AccurateRip database.
    Statistics
        Read error                           : 0
        Jitter error (maybe fixed)           : 0
        Retry sector count                   : 0
        Damaged sector count                 : 0

Track 10
    Filename : /Users/JohnAmbrosio/Desktop/Foxy Shazam - The Church of Rock and Roll (2012) [FLAC]/10 The Streets.flac
    Pre-gap length : 00:00:69

    Track gain             : -11.66 dB
    Peak                   : 0.988678
    CRC32 hash (test run)  : 55712194
    CRC32 hash             : 55712194
    CRC32 hash (skip zero) : D917DAC7
    AccurateRip signature  : 01BD3D6C
        ->Track not present in AccurateRip database.
    Statistics
        Read error                           : 0
        Jitter error (maybe fixed)           : 0
        Retry sector count                   : 0
        Damaged sector count                 : 0

Track 11
    Filename : /Users/JohnAmbrosio/Desktop/Foxy Shazam - The Church of Rock and Roll (2012) [FLAC]/11 Freedom.flac
    Pre-gap length : 00:00:10

    Track gain             : -9.95 dB
    Peak                   : 0.988678
    CRC32 hash (test run)  : DFBA317C
    CRC32 hash             : DFBA317C
    CRC32 hash (skip zero) : 49DA439E
    AccurateRip signature  : DA1426BD
        ->Track not present in AccurateRip database.
    Statistics
        Read error                           : 0
        Jitter error (maybe fixed)           : 0
        Retry sector count                   : 0
        Damaged sector count                 : 0

No errors occurred

End of status report

